<svg height="542" width="720" xmlns="http://www.w3.org/2000/svg">
<rect height="542" fill="#555" width="720"></rect>
<text fill="#7f7" font-family="Courier New" font-size="12" xml:space="preserve">
<tspan x="10" y="26">9 megabytes installed</tspan>
<tspan x="10" y="42"></tspan>
<tspan x="10" y="58">node_modules</tspan>
<tspan x="10" y="74">├── UNMET PEER DEPENDENCY react@&gt;=0.13.3</tspan>
<tspan x="10" y="90">└─┬ react-markdown@2.5.0 </tspan>
<tspan x="10" y="106">  ├─┬ commonmark@0.24.0 </tspan>
<tspan x="10" y="122">  │ ├── entities@1.1.1 </tspan>
<tspan x="10" y="138">  │ ├── mdurl@1.0.1 </tspan>
<tspan x="10" y="154">  │ └── string.prototype.repeat@0.2.0 </tspan>
<tspan x="10" y="170">  ├─┬ commonmark-react-renderer@4.3.2 </tspan>
<tspan x="10" y="186">  │ ├── lodash.assign@4.2.0 </tspan>
<tspan x="10" y="202">  │ ├── lodash.isplainobject@4.0.6 </tspan>
<tspan x="10" y="218">  │ ├── pascalcase@0.1.1 </tspan>
<tspan x="10" y="234">  │ └── xss-filters@1.2.7 </tspan>
<tspan x="10" y="250">  ├── in-publish@2.0.0 </tspan>
<tspan x="10" y="266">  ├─┬ prop-types@15.5.8 </tspan>
<tspan x="10" y="282">  │ └─┬ fbjs@0.8.12 </tspan>
<tspan x="10" y="298">  │   ├── core-js@1.2.7 </tspan>
<tspan x="10" y="314">  │   ├─┬ isomorphic-fetch@2.2.1 </tspan>
<tspan x="10" y="330">  │   │ ├─┬ node-fetch@1.6.3 </tspan>
<tspan x="10" y="346">  │   │ │ ├─┬ encoding@0.1.12 </tspan>
<tspan x="10" y="362">  │   │ │ │ └── iconv-lite@0.4.15 </tspan>
<tspan x="10" y="378">  │   │ │ └── is-stream@1.1.0 </tspan>
<tspan x="10" y="394">  │   │ └── whatwg-fetch@2.0.3 </tspan>
<tspan x="10" y="410">  │   ├─┬ loose-envify@1.3.1 </tspan>
<tspan x="10" y="426">  │   │ └── js-tokens@3.0.1 </tspan>
<tspan x="10" y="442">  │   ├── object-assign@4.1.1 </tspan>
<tspan x="10" y="458">  │   ├─┬ promise@7.1.1 </tspan>
<tspan x="10" y="474">  │   │ └── asap@2.0.5 </tspan>
<tspan x="10" y="490">  │   ├── setimmediate@1.0.5 </tspan>
<tspan x="10" y="506">  │   └── ua-parser-js@0.7.12 </tspan>
<tspan x="10" y="522">  └── UNMET PEER DEPENDENCY react@&gt;=0.14.0</tspan>
</text>
</svg>
